<svg xmlns="http://www.w3.org/2000/svg" viewBox="0 0 512 512">
  <rect width="512" height="512" rx="160" fill="#7C2D3E"/>
  <g transform="translate(64, 64)" fill="none" stroke="#F7EDD8" stroke-width="24" stroke-linecap="round" stroke-linejoin="round">
    <path d="M60 120 h264 c16 0 30 14 30 30 v192 c0 16-14 30-30 30 H60 c-16 0-30-14-30-30 V150 c0-16 14-30 30-30 z"/>
    <path d="M100 120 V80 c0-12 10-22 22-22 h140 c12 0 22 10 22 22 v40"/>
    <path d="M240 210 h114 c12 0 22 10 22 22 v40 c0 12-10 22-22 22 H240 c-12 0-22-10-22-22 v-40 c0-12 10-22 22-22 z" fill="#F7EDD8"/>
    <circle cx="270" cy="252" r="10" fill="#7C2D3E" stroke="none"/>
  </g>
</svg>